{"title":"10 Years(2011) DVDRip XViD juggs","uid":8329875,"size":745845157,"categoryP":"video","categoryS":"movies","magnet":"?xt=urn:btih:18377cef59ddfad5b8318960e22d19f4ca59f348&amp;dn=10+Years%282011%29+DVDRip+XViD+juggs&amp;tr=udp%3A%2F%2Ftracker.openbittorrent.com%3A80&amp;tr=udp%3A%2F%2Fopen.demonii.com%3A1337&amp;tr=udp%3A%2F%2Ftracker.coppersurfer.tk%3A6969&amp;tr=udp%3A%2F%2Fexodus.desync.com%3A6969","seeders":1,"leechers":0,"uploader":"juggs99","files":3,"time":1364864157,"description":"Source : DVDR L-S (Thanks)\n\n &lt;a href=&quot;\nhttp://www.imdb.co.uk/title/tt1715873/&quot; rel=&quot;nofollow&quot; target=&quot;_NEW&quot;&gt;\nhttp://www.imdb.co.uk/title/tt1715873/&lt;/a&gt;\n\n\nFormat                                   : AVI\nFormat/Info                              : Audio Video Interleave\nFile size                                : 700 MiB\nDuration                                 : 1h 36mn\nOverall bit rate                         : 1 013 Kbps\nWriting library                          : VirtualDub build 32842/release\n\nVideo\nID                                       : 0\nFormat                                   : MPEG-4 Visual\nFormat profile                           : Advanced Simple@L5\nFormat settings, BVOP                    : 2\nFormat settings, QPel                    : No\nFormat settings, GMC                     : No warppoints\nFormat settings, Matrix                  : Default (H.263)\nMuxing mode                              : Packed bitstream\nCodec ID                                 : XVID\nCodec ID/Hint                            : XviD\nDuration                                 : 1h 36mn\nBit rate                                 : 876 Kbps\nWidth                                    : 640 pixels\nHeight                                   : 336 pixels\nDisplay aspect ratio                     : 1.905\nFrame rate                               : 25.000 fps\nColor space                              : YUV\nChroma subsampling                       : 4:2:0\nBit depth                                : 8 bits\nScan type                                : Progressive\nCompression mode                         : Lossy\nBits/(Pixel*Frame)                       : 0.163\nStream size                              : 605 MiB (86%)\nWriting library                          : XviD 64\n\nAudio\nID                                       : 1\nFormat                                   : MPEG Audio\nFormat version                           : Version 1\nFormat profile                           : Layer 3\nCodec ID                                 : 55\nCodec ID/Hint                            : MP3\nDuration                                 : 1h 36mn\nBit rate mode                            : Constant\nBit rate                                 : 128 Kbps\nChannel(s)                               : 2 channels\nSampling rate                            : 44.1 KHz\nCompression mode                         : Lossy\nStream size                              : 88.4 MiB (13%)\nAlignment                                : Split accross interleaves\nInterleave, duration                     : 40 ms (1.00 video frame)\nInterleave, preload duration             : 500 ms\nWriting library                          : LAME3.99r\nEncoding settings                        : -m s -V 4 -q 3 -lowpass 17 -b 128\n\nPlot\nThe night before their high school reunion, a group of friends realize they still haven't quite grown up in some ways.\n\n &lt;a href=&quot;\nhttp://www.shotpix.com/images/68142046040195219396.png&quot; rel=&quot;nofollow&quot; target=&quot;_NEW&quot;&gt;\nhttp://www.shotpix.com/images/68142046040195219396.png&lt;/a&gt; &lt;a href=&quot;\nhttp://www.shotpix.com/images/92858789814439230898.png&quot; rel=&quot;nofollow&quot; target=&quot;_NEW&quot;&gt;\nhttp://www.shotpix.com/images/92858789814439230898.png&lt;/a&gt; &lt;a href=&quot;\nhttp://www.shotpix.com/images/41120963360142915118.png&quot; rel=&quot;nofollow&quot; target=&quot;_NEW&quot;&gt;\nhttp://www.shotpix.com/images/41120963360142915118.png&lt;/a&gt;","torrent":{"xt":"urn:btih:18377cef59ddfad5b8318960e22d19f4ca59f348","amp;dn":"10+Years%282011%29+DVDRip+XViD+juggs","amp;tr":["udp%3A%2F%2Ftracker.openbittorrent.com%3A80","udp%3A%2F%2Fopen.demonii.com%3A1337","udp%3A%2F%2Ftracker.coppersurfer.tk%3A6969","udp%3A%2F%2Fexodus.desync.com%3A6969"],"infoHash":"18377cef59ddfad5b8318960e22d19f4ca59f348","infoHashBuffer":{"type":"Buffer","data":[24,55,124,239,89,221,250,213,184,49,137,96,226,45,25,244,202,89,243,72]},"announce":[],"urlList":[]}}